<svg class="main-svg" xmlns="http://www.w3.org/2000/svg" xmlns:xlink="http://www.w3.org/1999/xlink" width="900" height="600" style="" viewBox="0 0 900 600"><rect x="0" y="0" width="900" height="600" style="fill: rgb(255, 255, 255); fill-opacity: 1;"/><defs id="defs-79820c"><g class="clips"><clipPath id="clip79820cxyplot" class="plotclip"><rect width="632" height="480"/></clipPath><clipPath class="axesclip" id="clip79820cx"><rect x="80" y="0" width="632" height="600"/></clipPath><clipPath class="axesclip" id="clip79820cy"><rect x="0" y="60" width="900" height="480"/></clipPath><clipPath class="axesclip" id="clip79820cxy"><rect x="80" y="60" width="632" height="480"/></clipPath></g><g class="gradients"/><g class="patterns"/></defs><g class="bglayer"/><g class="layer-below"><g class="imagelayer"/><g class="shapelayer"/></g><g class="cartesianlayer"><g class="subplot xy"><g class="layer-subplot"><g class="shapelayer"/><g class="imagelayer"/></g><g class="minor-gridlayer"><g class="x"/><g class="y"/></g><g class="gridlayer"><g class="x"><path class="xgrid crisp" transform="translate(179.66,0)" d="M0,60v480" style="stroke: rgb(235, 240, 248); stroke-opacity: 1; stroke-width: 1px;"/><path class="xgrid crisp" transform="translate(303.28,0)" d="M0,60v480" style="stroke: rgb(235, 240, 248); stroke-opacity: 1; stroke-width: 1px;"/><path class="xgrid crisp" transform="translate(426.91,0)" d="M0,60v480" style="stroke: rgb(235, 240, 248); stroke-opacity: 1; stroke-width: 1px;"/><path class="xgrid crisp" transform="translate(550.53,0)" d="M0,60v480" style="stroke: rgb(235, 240, 248); stroke-opacity: 1; stroke-width: 1px;"/><path class="xgrid crisp" transform="translate(674.15,0)" d="M0,60v480" style="stroke: rgb(235, 240, 248); stroke-opacity: 1; stroke-width: 1px;"/></g><g class="y"><path class="ygrid crisp" transform="translate(0,446.4)" d="M80,0h632" style="stroke: rgb(235, 240, 248); stroke-opacity: 1; stroke-width: 1px;"/><path class="ygrid crisp" transform="translate(0,352.8)" d="M80,0h632" style="stroke: rgb(235, 240, 248); stroke-opacity: 1; stroke-width: 1px;"/><path class="ygrid crisp" transform="translate(0,259.2)" d="M80,0h632" style="stroke: rgb(235, 240, 248); stroke-opacity: 1; stroke-width: 1px;"/><path class="ygrid crisp" transform="translate(0,165.6)" d="M80,0h632" style="stroke: rgb(235, 240, 248); stroke-opacity: 1; stroke-width: 1px;"/><path class="ygrid crisp" transform="translate(0,72)" d="M80,0h632" style="stroke: rgb(235, 240, 248); stroke-opacity: 1; stroke-width: 1px;"/></g></g><g class="zerolinelayer"><path class="yzl zl crisp" transform="translate(0,540)" d="M80,0h632" style="stroke: rgb(235, 240, 248); stroke-opacity: 1; stroke-width: 2px;"/></g><g class="layer-between"><g class="shapelayer"/><g class="imagelayer"/></g><path class="xlines-below"/><path class="ylines-below"/><g class="overlines-below"/><g class="xaxislayer-below"/><g class="yaxislayer-below"/><g class="overaxes-below"/><g class="overplot"><g class="xy" transform="translate(80,60)" clip-path="url(#clip79820cxyplot)"><g class="scatterlayer mlayer"><g class="trace scatter trace83f854" style="stroke-miterlimit: 2; opacity: 1;"><g class="fills"/><g class="errorbars"/><g class="lines"><path class="js-line" d="M37.85,477.64L99.66,470.61L285.09,399.16L594.15,68.88" style="vector-effect: none; fill: none; stroke: rgb(220, 38, 38); stroke-opacity: 1; stroke-width: 3px; opacity: 1;"/></g><g class="points"><path class="point" transform="translate(37.85,477.64)" d="M5,0A5,5 0 1,1 0,-5A5,5 0 0,1 5,0Z" style="opacity: 1; stroke-width: 0px; fill: rgb(220, 38, 38); fill-opacity: 1;"/><path class="point" transform="translate(99.66,470.61)" d="M5,0A5,5 0 1,1 0,-5A5,5 0 0,1 5,0Z" style="opacity: 1; stroke-width: 0px; fill: rgb(220, 38, 38); fill-opacity: 1;"/><path class="point" transform="translate(285.09,399.16)" d="M5,0A5,5 0 1,1 0,-5A5,5 0 0,1 5,0Z" style="opacity: 1; stroke-width: 0px; fill: rgb(220, 38, 38); fill-opacity: 1;"/><path class="point" transform="translate(594.15,68.88)" d="M5,0A5,5 0 1,1 0,-5A5,5 0 0,1 5,0Z" style="opacity: 1; stroke-width: 0px; fill: rgb(220, 38, 38); fill-opacity: 1;"/></g><g class="text"/></g><g class="trace scatter tracedfb7fb" style="stroke-miterlimit: 2; opacity: 1;"><g class="fills"/><g class="errorbars"/><g class="lines"><path class="js-line" d="M37.85,479.57L99.66,478.28L285.09,469.72L594.15,436.35" style="vector-effect: none; fill: none; stroke: rgb(234, 88, 12); stroke-opacity: 1; stroke-width: 3px; opacity: 1;"/></g><g class="points"><path class="point" transform="translate(37.85,479.57)" d="M5,0A5,5 0 1,1 0,-5A5,5 0 0,1 5,0Z" style="opacity: 1; stroke-width: 0px; fill: rgb(234, 88, 12); fill-opacity: 1;"/><path class="point" transform="translate(99.66,478.28)" d="M5,0A5,5 0 1,1 0,-5A5,5 0 0,1 5,0Z" style="opacity: 1; stroke-width: 0px; fill: rgb(234, 88, 12); fill-opacity: 1;"/><path class="point" transform="translate(285.09,469.72)" d="M5,0A5,5 0 1,1 0,-5A5,5 0 0,1 5,0Z" style="opacity: 1; stroke-width: 0px; fill: rgb(234, 88, 12); fill-opacity: 1;"/><path class="point" transform="translate(594.15,436.35)" d="M5,0A5,5 0 1,1 0,-5A5,5 0 0,1 5,0Z" style="opacity: 1; stroke-width: 0px; fill: rgb(234, 88, 12); fill-opacity: 1;"/></g><g class="text"/></g><g class="trace scatter trace22f098" style="stroke-miterlimit: 2; opacity: 1;"><g class="fills"/><g class="errorbars"/><g class="lines"><path class="js-line" d="M37.85,475.58L99.66,462.08L285.09,367.96L594.15,30.25" style="vector-effect: none; fill: none; stroke: rgb(217, 119, 6); stroke-opacity: 1; stroke-width: 3px; opacity: 1;"/></g><g class="points"><path class="point" transform="translate(37.85,475.58)" d="M5,0A5,5 0 1,1 0,-5A5,5 0 0,1 5,0Z" style="opacity: 1; stroke-width: 0px; fill: rgb(217, 119, 6); fill-opacity: 1;"/><path class="point" transform="translate(99.66,462.08)" d="M5,0A5,5 0 1,1 0,-5A5,5 0 0,1 5,0Z" style="opacity: 1; stroke-width: 0px; fill: rgb(217, 119, 6); fill-opacity: 1;"/><path class="point" transform="translate(285.09,367.96)" d="M5,0A5,5 0 1,1 0,-5A5,5 0 0,1 5,0Z" style="opacity: 1; stroke-width: 0px; fill: rgb(217, 119, 6); fill-opacity: 1;"/><path class="point" transform="translate(594.15,30.25)" d="M5,0A5,5 0 1,1 0,-5A5,5 0 0,1 5,0Z" style="opacity: 1; stroke-width: 0px; fill: rgb(217, 119, 6); fill-opacity: 1;"/></g><g class="text"/></g><g class="trace scatter trace101930" style="stroke-miterlimit: 2; opacity: 1;"><g class="fills"/><g class="errorbars"/><g class="lines"><path class="js-line" d="M37.85,479.34L285.09,476.53L594.15,472.7" style="vector-effect: none; fill: none; stroke: rgb(22, 163, 74); stroke-opacity: 1; stroke-width: 3px; opacity: 1;"/></g><g class="points"><path class="point" transform="translate(37.85,479.34)" d="M5,0A5,5 0 1,1 0,-5A5,5 0 0,1 5,0Z" style="opacity: 1; stroke-width: 0px; fill: rgb(22, 163, 74); fill-opacity: 1;"/><path class="point" transform="translate(99.66,478.7)" d="M5,0A5,5 0 1,1 0,-5A5,5 0 0,1 5,0Z" style="opacity: 1; stroke-width: 0px; fill: rgb(22, 163, 74); fill-opacity: 1;"/><path class="point" transform="translate(285.09,476.53)" d="M5,0A5,5 0 1,1 0,-5A5,5 0 0,1 5,0Z" style="opacity: 1; stroke-width: 0px; fill: rgb(22, 163, 74); fill-opacity: 1;"/><path class="point" transform="translate(594.15,472.7)" d="M5,0A5,5 0 1,1 0,-5A5,5 0 0,1 5,0Z" style="opacity: 1; stroke-width: 0px; fill: rgb(22, 163, 74); fill-opacity: 1;"/></g><g class="text"/></g><g class="trace scatter trace685ea0" style="stroke-miterlimit: 2; opacity: 1;"><g class="fills"/><g class="errorbars"/><g class="lines"><path class="js-line" d="M37.85,479.82L594.15,477.81" style="vector-effect: none; fill: none; stroke: rgb(37, 99, 235); stroke-opacity: 1; stroke-width: 3px; opacity: 1;"/></g><g class="points"><path class="point" transform="translate(37.85,479.82)" d="M5,0A5,5 0 1,1 0,-5A5,5 0 0,1 5,0Z" style="opacity: 1; stroke-width: 0px; fill: rgb(37, 99, 235); fill-opacity: 1;"/><path class="point" transform="translate(99.66,479.6)" d="M5,0A5,5 0 1,1 0,-5A5,5 0 0,1 5,0Z" style="opacity: 1; stroke-width: 0px; fill: rgb(37, 99, 235); fill-opacity: 1;"/><path class="point" transform="translate(285.09,478.93)" d="M5,0A5,5 0 1,1 0,-5A5,5 0 0,1 5,0Z" style="opacity: 1; stroke-width: 0px; fill: rgb(37, 99, 235); fill-opacity: 1;"/><path class="point" transform="translate(594.15,477.81)" d="M5,0A5,5 0 1,1 0,-5A5,5 0 0,1 5,0Z" style="opacity: 1; stroke-width: 0px; fill: rgb(37, 99, 235); fill-opacity: 1;"/></g><g class="text"/></g><g class="trace scatter trace597df7" style="stroke-miterlimit: 2; opacity: 1;"><g class="fills"/><g class="errorbars"/><g class="lines"><path class="js-line" d="M37.85,479.79L594.15,477.06" style="vector-effect: none; fill: none; stroke: rgb(5, 150, 105); stroke-opacity: 1; stroke-width: 3px; opacity: 1;"/></g><g class="points"><path class="point" transform="translate(37.85,479.79)" d="M5,0A5,5 0 1,1 0,-5A5,5 0 0,1 5,0Z" style="opacity: 1; stroke-width: 0px; fill: rgb(5, 150, 105); fill-opacity: 1;"/><path class="point" transform="translate(99.66,479.53)" d="M5,0A5,5 0 1,1 0,-5A5,5 0 0,1 5,0Z" style="opacity: 1; stroke-width: 0px; fill: rgb(5, 150, 105); fill-opacity: 1;"/><path class="point" transform="translate(285.09,478.67)" d="M5,0A5,5 0 1,1 0,-5A5,5 0 0,1 5,0Z" style="opacity: 1; stroke-width: 0px; fill: rgb(5, 150, 105); fill-opacity: 1;"/><path class="point" transform="translate(594.15,477.06)" d="M5,0A5,5 0 1,1 0,-5A5,5 0 0,1 5,0Z" style="opacity: 1; stroke-width: 0px; fill: rgb(5, 150, 105); fill-opacity: 1;"/></g><g class="text"/></g><g class="trace scatter traceb4030f" style="stroke-miterlimit: 2; opacity: 1;"><g class="fills"/><g class="errorbars"/><g class="lines"><path class="js-line" d="M37.85,470.73L99.66,468.59L285.09,469.92L594.15,469.51" style="vector-effect: none; fill: none; stroke: rgb(124, 58, 237); stroke-opacity: 1; stroke-width: 3px; opacity: 1;"/></g><g class="points"><path class="point" transform="translate(37.85,470.73)" d="M5,0A5,5 0 1,1 0,-5A5,5 0 0,1 5,0Z" style="opacity: 1; stroke-width: 0px; fill: rgb(124, 58, 237); fill-opacity: 1;"/><path class="point" transform="translate(99.66,468.59)" d="M5,0A5,5 0 1,1 0,-5A5,5 0 0,1 5,0Z" style="opacity: 1; stroke-width: 0px; fill: rgb(124, 58, 237); fill-opacity: 1;"/><path class="point" transform="translate(285.09,469.92)" d="M5,0A5,5 0 1,1 0,-5A5,5 0 0,1 5,0Z" style="opacity: 1; stroke-width: 0px; fill: rgb(124, 58, 237); fill-opacity: 1;"/><path class="point" transform="translate(594.15,469.51)" d="M5,0A5,5 0 1,1 0,-5A5,5 0 0,1 5,0Z" style="opacity: 1; stroke-width: 0px; fill: rgb(124, 58, 237); fill-opacity: 1;"/></g><g class="text"/></g><g class="trace scatter trace13a279" style="stroke-miterlimit: 2; opacity: 1;"><g class="fills"/><g class="errorbars"/><g class="lines"><path class="js-line" d="M37.85,479.8L594.15,478.31" style="vector-effect: none; fill: none; stroke: rgb(192, 38, 211); stroke-opacity: 1; stroke-width: 3px; opacity: 1;"/></g><g class="points"><path class="point" transform="translate(37.85,479.8)" d="M5,0A5,5 0 1,1 0,-5A5,5 0 0,1 5,0Z" style="opacity: 1; stroke-width: 0px; fill: rgb(192, 38, 211); fill-opacity: 1;"/><path class="point" transform="translate(99.66,479.68)" d="M5,0A5,5 0 1,1 0,-5A5,5 0 0,1 5,0Z" style="opacity: 1; stroke-width: 0px; fill: rgb(192, 38, 211); fill-opacity: 1;"/><path class="point" transform="translate(285.09,479.14)" d="M5,0A5,5 0 1,1 0,-5A5,5 0 0,1 5,0Z" style="opacity: 1; stroke-width: 0px; fill: rgb(192, 38, 211); fill-opacity: 1;"/><path class="point" transform="translate(594.15,478.31)" d="M5,0A5,5 0 1,1 0,-5A5,5 0 0,1 5,0Z" style="opacity: 1; stroke-width: 0px; fill: rgb(192, 38, 211); fill-opacity: 1;"/></g><g class="text"/></g><g class="trace scatter tracefbb691" style="stroke-miterlimit: 2; opacity: 1;"><g class="fills"/><g class="errorbars"/><g class="lines"><path class="js-line" d="M37.85,479.82L594.15,478.27" style="vector-effect: none; fill: none; stroke: rgb(8, 145, 178); stroke-opacity: 1; stroke-width: 3px; opacity: 1;"/></g><g class="points"><path class="point" transform="translate(37.85,479.82)" d="M5,0A5,5 0 1,1 0,-5A5,5 0 0,1 5,0Z" style="opacity: 1; stroke-width: 0px; fill: rgb(8, 145, 178); fill-opacity: 1;"/><path class="point" transform="translate(99.66,479.65)" d="M5,0A5,5 0 1,1 0,-5A5,5 0 0,1 5,0Z" style="opacity: 1; stroke-width: 0px; fill: rgb(8, 145, 178); fill-opacity: 1;"/><path class="point" transform="translate(285.09,479.13)" d="M5,0A5,5 0 1,1 0,-5A5,5 0 0,1 5,0Z" style="opacity: 1; stroke-width: 0px; fill: rgb(8, 145, 178); fill-opacity: 1;"/><path class="point" transform="translate(594.15,478.27)" d="M5,0A5,5 0 1,1 0,-5A5,5 0 0,1 5,0Z" style="opacity: 1; stroke-width: 0px; fill: rgb(8, 145, 178); fill-opacity: 1;"/></g><g class="text"/></g></g></g></g><g class="zerolinelayer-above"/><path class="xlines-above crisp" d="M0,0" style="fill: none;"/><path class="ylines-above crisp" d="M0,0" style="fill: none;"/><g class="overlines-above"/><g class="xaxislayer-above"><g class="xtick"><text text-anchor="middle" x="0" y="555" transform="translate(179.66,0)" style="font-family: 'Open Sans', verdana, arial, sans-serif; font-size: 14px; fill: rgb(42, 63, 95); fill-opacity: 1; white-space: pre;">2k</text></g><g class="xtick"><text text-anchor="middle" x="0" y="555" style="font-family: 'Open Sans', verdana, arial, sans-serif; font-size: 14px; fill: rgb(42, 63, 95); fill-opacity: 1; white-space: pre;" transform="translate(303.28,0)">4k</text></g><g class="xtick"><text text-anchor="middle" x="0" y="555" style="font-family: 'Open Sans', verdana, arial, sans-serif; font-size: 14px; fill: rgb(42, 63, 95); fill-opacity: 1; white-space: pre;" transform="translate(426.91,0)">6k</text></g><g class="xtick"><text text-anchor="middle" x="0" y="555" style="font-family: 'Open Sans', verdana, arial, sans-serif; font-size: 14px; fill: rgb(42, 63, 95); fill-opacity: 1; white-space: pre;" transform="translate(550.53,0)">8k</text></g><g class="xtick"><text text-anchor="middle" x="0" y="555" style="font-family: 'Open Sans', verdana, arial, sans-serif; font-size: 14px; fill: rgb(42, 63, 95); fill-opacity: 1; white-space: pre;" transform="translate(674.15,0)">10k</text></g></g><g class="yaxislayer-above"><g class="ytick"><text text-anchor="end" x="79" y="4.8999999999999995" transform="translate(0,540)" style="font-family: 'Open Sans', verdana, arial, sans-serif; font-size: 14px; fill: rgb(42, 63, 95); fill-opacity: 1; white-space: pre;">0</text></g><g class="ytick"><text text-anchor="end" x="79" y="4.8999999999999995" style="font-family: 'Open Sans', verdana, arial, sans-serif; font-size: 14px; fill: rgb(42, 63, 95); fill-opacity: 1; white-space: pre;" transform="translate(0,446.4)">20k</text></g><g class="ytick"><text text-anchor="end" x="79" y="4.8999999999999995" style="font-family: 'Open Sans', verdana, arial, sans-serif; font-size: 14px; fill: rgb(42, 63, 95); fill-opacity: 1; white-space: pre;" transform="translate(0,352.8)">40k</text></g><g class="ytick"><text text-anchor="end" x="79" y="4.8999999999999995" style="font-family: 'Open Sans', verdana, arial, sans-serif; font-size: 14px; fill: rgb(42, 63, 95); fill-opacity: 1; white-space: pre;" transform="translate(0,259.2)">60k</text></g><g class="ytick"><text text-anchor="end" x="79" y="4.8999999999999995" style="font-family: 'Open Sans', verdana, arial, sans-serif; font-size: 14px; fill: rgb(42, 63, 95); fill-opacity: 1; white-space: pre;" transform="translate(0,165.6)">80k</text></g><g class="ytick"><text text-anchor="end" x="79" y="4.8999999999999995" style="font-family: 'Open Sans', verdana, arial, sans-serif; font-size: 14px; fill: rgb(42, 63, 95); fill-opacity: 1; white-space: pre;" transform="translate(0,72)">100k</text></g></g><g class="overaxes-above"/></g></g><g class="polarlayer"/><g class="smithlayer"/><g class="ternarylayer"/><g class="geolayer"/><g class="funnelarealayer"/><g class="pielayer"/><g class="iciclelayer"/><g class="treemaplayer"/><g class="sunburstlayer"/><g class="glimages"/><defs id="topdefs-79820c"><g class="clips"/><clipPath id="legend79820c"><rect width="163" height="273" x="0" y="0"/></clipPath></defs><g class="layer-above"><g class="imagelayer"/><g class="shapelayer"/></g><g class="infolayer"><g class="legend" pointer-events="all" transform="translate(724.64,60)"><rect class="bg" shape-rendering="crispEdges" style="stroke: rgb(68, 68, 68); stroke-opacity: 1; fill: rgb(255, 255, 255); fill-opacity: 1; stroke-width: 0px;" width="163" height="273" x="0" y="0"/><g class="scrollbox" transform="" clip-path="url(#legend79820c)"><g class="groups" transform=""><g class="traces" transform="translate(0,14.950000000000001)" style="opacity: 1;"><text class="legendtext" text-anchor="start" x="5" y="5.07" style="font-family: 'Open Sans', verdana, arial, sans-serif; font-size: 13px; fill: rgb(85, 85, 85); fill-opacity: 1; white-space: pre;">O(n²) Quadratic</text><g class="layers"><g class="legendfill"/><g class="legendlines"/><g class="legendsymbols"><g class="legendpoints"/></g></g><rect class="legendtoggle" x="0" y="-9.950000000000001" width="157.236328125" height="19.900000000000002" style="fill: rgb(0, 0, 0); fill-opacity: 0;"/></g><g class="traces" transform="translate(0,34.85)" style="opacity: 1;"><text class="legendtext" text-anchor="start" x="40" y="5.07" style="font-family: 'Open Sans', verdana, arial, sans-serif; font-size: 13px; fill: rgb(42, 63, 95); fill-opacity: 1; white-space: pre;">Bubble Sort</text><g class="layers" style="opacity: 1;"><g class="legendfill"/><g class="legendlines"><path class="js-line" d="M5,0h30" style="fill: none; stroke: rgb(220, 38, 38); stroke-opacity: 1; stroke-width: 3px;"/></g><g class="legendsymbols"><g class="legendpoints"><path class="scatterpts" transform="translate(20,0)" d="M5,0A5,5 0 1,1 0,-5A5,5 0 0,1 5,0Z" style="opacity: 1; stroke-width: 0px; fill: rgb(220, 38, 38); fill-opacity: 1;"/></g></g></g><rect class="legendtoggle" x="0" y="-9.950000000000001" width="157.236328125" height="19.900000000000002" style="fill: rgb(0, 0, 0); fill-opacity: 0;"/></g><g class="traces" transform="translate(0,54.75000000000001)" style="opacity: 1;"><text class="legendtext" text-anchor="start" x="40" y="5.07" style="font-family: 'Open Sans', verdana, arial, sans-serif; font-size: 13px; fill: rgb(42, 63, 95); fill-opacity: 1; white-space: pre;">Insertion Sort</text><g class="layers" style="opacity: 1;"><g class="legendfill"/><g class="legendlines"><path class="js-line" d="M5,0h30" style="fill: none; stroke: rgb(234, 88, 12); stroke-opacity: 1; stroke-width: 3px;"/></g><g class="legendsymbols"><g class="legendpoints"><path class="scatterpts" transform="translate(20,0)" d="M5,0A5,5 0 1,1 0,-5A5,5 0 0,1 5,0Z" style="opacity: 1; stroke-width: 0px; fill: rgb(234, 88, 12); fill-opacity: 1;"/></g></g></g><rect class="legendtoggle" x="0" y="-9.950000000000001" width="157.236328125" height="19.900000000000002" style="fill: rgb(0, 0, 0); fill-opacity: 0;"/></g><g class="traces" transform="translate(0,74.65)" style="opacity: 1;"><text class="legendtext" text-anchor="start" x="40" y="5.07" style="font-family: 'Open Sans', verdana, arial, sans-serif; font-size: 13px; fill: rgb(42, 63, 95); fill-opacity: 1; white-space: pre;">Selection Sort</text><g class="layers" style="opacity: 1;"><g class="legendfill"/><g class="legendlines"><path class="js-line" d="M5,0h30" style="fill: none; stroke: rgb(217, 119, 6); stroke-opacity: 1; stroke-width: 3px;"/></g><g class="legendsymbols"><g class="legendpoints"><path class="scatterpts" transform="translate(20,0)" d="M5,0A5,5 0 1,1 0,-5A5,5 0 0,1 5,0Z" style="opacity: 1; stroke-width: 0px; fill: rgb(217, 119, 6); fill-opacity: 1;"/></g></g></g><rect class="legendtoggle" x="0" y="-9.950000000000001" width="157.236328125" height="19.900000000000002" style="fill: rgb(0, 0, 0); fill-opacity: 0;"/></g></g><g class="groups" transform="translate(0,12)"><g class="traces" transform="translate(0,94.55000000000001)" style="opacity: 1;"><text class="legendtext" text-anchor="start" x="5" y="5.07" style="font-family: 'Open Sans', verdana, arial, sans-serif; font-size: 13px; fill: rgb(85, 85, 85); fill-opacity: 1; white-space: pre;">O(n log n) Efficient</text><g class="layers"><g class="legendfill"/><g class="legendlines"/><g class="legendsymbols"><g class="legendpoints"/></g></g><rect class="legendtoggle" x="0" y="-9.950000000000001" width="157.236328125" height="19.900000000000002" style="fill: rgb(0, 0, 0); fill-opacity: 0;"/></g><g class="traces" transform="translate(0,114.45000000000002)" style="opacity: 1;"><text class="legendtext" text-anchor="start" x="40" y="5.07" style="font-family: 'Open Sans', verdana, arial, sans-serif; font-size: 13px; fill: rgb(42, 63, 95); fill-opacity: 1; white-space: pre;">Merge Sort</text><g class="layers" style="opacity: 1;"><g class="legendfill"/><g class="legendlines"><path class="js-line" d="M5,0h30" style="fill: none; stroke: rgb(22, 163, 74); stroke-opacity: 1; stroke-width: 3px;"/></g><g class="legendsymbols"><g class="legendpoints"><path class="scatterpts" transform="translate(20,0)" d="M5,0A5,5 0 1,1 0,-5A5,5 0 0,1 5,0Z" style="opacity: 1; stroke-width: 0px; fill: rgb(22, 163, 74); fill-opacity: 1;"/></g></g></g><rect class="legendtoggle" x="0" y="-9.950000000000001" width="157.236328125" height="19.900000000000002" style="fill: rgb(0, 0, 0); fill-opacity: 0;"/></g><g class="traces" transform="translate(0,134.35000000000002)" style="opacity: 1;"><text class="legendtext" text-anchor="start" x="40" y="5.07" style="font-family: 'Open Sans', verdana, arial, sans-serif; font-size: 13px; fill: rgb(42, 63, 95); fill-opacity: 1; white-space: pre;">Quick Sort</text><g class="layers" style="opacity: 1;"><g class="legendfill"/><g class="legendlines"><path class="js-line" d="M5,0h30" style="fill: none; stroke: rgb(37, 99, 235); stroke-opacity: 1; stroke-width: 3px;"/></g><g class="legendsymbols"><g class="legendpoints"><path class="scatterpts" transform="translate(20,0)" d="M5,0A5,5 0 1,1 0,-5A5,5 0 0,1 5,0Z" style="opacity: 1; stroke-width: 0px; fill: rgb(37, 99, 235); fill-opacity: 1;"/></g></g></g><rect class="legendtoggle" x="0" y="-9.950000000000001" width="157.236328125" height="19.900000000000002" style="fill: rgb(0, 0, 0); fill-opacity: 0;"/></g><g class="traces" transform="translate(0,154.25)" style="opacity: 1;"><text class="legendtext" text-anchor="start" x="40" y="5.07" style="font-family: 'Open Sans', verdana, arial, sans-serif; font-size: 13px; fill: rgb(42, 63, 95); fill-opacity: 1; white-space: pre;">Heap Sort</text><g class="layers" style="opacity: 1;"><g class="legendfill"/><g class="legendlines"><path class="js-line" d="M5,0h30" style="fill: none; stroke: rgb(5, 150, 105); stroke-opacity: 1; stroke-width: 3px;"/></g><g class="legendsymbols"><g class="legendpoints"><path class="scatterpts" transform="translate(20,0)" d="M5,0A5,5 0 1,1 0,-5A5,5 0 0,1 5,0Z" style="opacity: 1; stroke-width: 0px; fill: rgb(5, 150, 105); fill-opacity: 1;"/></g></g></g><rect class="legendtoggle" x="0" y="-9.950000000000001" width="157.236328125" height="19.900000000000002" style="fill: rgb(0, 0, 0); fill-opacity: 0;"/></g></g><g class="groups" transform="translate(0,24)"><g class="traces" transform="translate(0,174.15)" style="opacity: 1;"><text class="legendtext" text-anchor="start" x="5" y="5.07" style="font-family: 'Open Sans', verdana, arial, sans-serif; font-size: 13px; fill: rgb(85, 85, 85); fill-opacity: 1; white-space: pre;">O(n+k) Non-Comparison</text><g class="layers"><g class="legendfill"/><g class="legendlines"/><g class="legendsymbols"><g class="legendpoints"/></g></g><rect class="legendtoggle" x="0" y="-9.950000000000001" width="157.236328125" height="19.900000000000002" style="fill: rgb(0, 0, 0); fill-opacity: 0;"/></g><g class="traces" transform="translate(0,194.05)" style="opacity: 1;"><text class="legendtext" text-anchor="start" x="40" y="5.07" style="font-family: 'Open Sans', verdana, arial, sans-serif; font-size: 13px; fill: rgb(42, 63, 95); fill-opacity: 1; white-space: pre;">Counting Sort</text><g class="layers" style="opacity: 1;"><g class="legendfill"/><g class="legendlines"><path class="js-line" d="M5,0h30" style="fill: none; stroke: rgb(124, 58, 237); stroke-opacity: 1; stroke-width: 3px;"/></g><g class="legendsymbols"><g class="legendpoints"><path class="scatterpts" transform="translate(20,0)" d="M5,0A5,5 0 1,1 0,-5A5,5 0 0,1 5,0Z" style="opacity: 1; stroke-width: 0px; fill: rgb(124, 58, 237); fill-opacity: 1;"/></g></g></g><rect class="legendtoggle" x="0" y="-9.950000000000001" width="157.236328125" height="19.900000000000002" style="fill: rgb(0, 0, 0); fill-opacity: 0;"/></g><g class="traces" transform="translate(0,213.95000000000002)" style="opacity: 1;"><text class="legendtext" text-anchor="start" x="40" y="5.07" style="font-family: 'Open Sans', verdana, arial, sans-serif; font-size: 13px; fill: rgb(42, 63, 95); fill-opacity: 1; white-space: pre;">Bucket Sort</text><g class="layers" style="opacity: 1;"><g class="legendfill"/><g class="legendlines"><path class="js-line" d="M5,0h30" style="fill: none; stroke: rgb(192, 38, 211); stroke-opacity: 1; stroke-width: 3px;"/></g><g class="legendsymbols"><g class="legendpoints"><path class="scatterpts" transform="translate(20,0)" d="M5,0A5,5 0 1,1 0,-5A5,5 0 0,1 5,0Z" style="opacity: 1; stroke-width: 0px; fill: rgb(192, 38, 211); fill-opacity: 1;"/></g></g></g><rect class="legendtoggle" x="0" y="-9.950000000000001" width="157.236328125" height="19.900000000000002" style="fill: rgb(0, 0, 0); fill-opacity: 0;"/></g><g class="traces" transform="translate(0,233.85000000000002)" style="opacity: 1;"><text class="legendtext" text-anchor="start" x="40" y="5.07" style="font-family: 'Open Sans', verdana, arial, sans-serif; font-size: 13px; fill: rgb(42, 63, 95); fill-opacity: 1; white-space: pre;">Radix Sort</text><g class="layers" style="opacity: 1;"><g class="legendfill"/><g class="legendlines"><path class="js-line" d="M5,0h30" style="fill: none; stroke: rgb(8, 145, 178); stroke-opacity: 1; stroke-width: 3px;"/></g><g class="legendsymbols"><g class="legendpoints"><path class="scatterpts" transform="translate(20,0)" d="M5,0A5,5 0 1,1 0,-5A5,5 0 0,1 5,0Z" style="opacity: 1; stroke-width: 0px; fill: rgb(8, 145, 178); fill-opacity: 1;"/></g></g></g><rect class="legendtoggle" x="0" y="-9.950000000000001" width="157.236328125" height="19.900000000000002" style="fill: rgb(0, 0, 0); fill-opacity: 0;"/></g></g></g><rect class="scrollbar" rx="20" ry="3" width="0" height="0" style="fill: rgb(128, 139, 164); fill-opacity: 1;" x="0" y="0"/></g><g class="g-gtitle"><text class="gtitle" x="45" y="30" text-anchor="start" dy="0em" style="opacity: 1; font-family: 'Open Sans', verdana, arial, sans-serif; font-size: 22px; fill: rgb(42, 63, 95); fill-opacity: 1; white-space: pre;">Sorting Algorithms: O(n²) vs O(n log n) vs O(n+k)</text></g><g class="g-xtitle"><text class="xtitle" x="396" y="585.4" text-anchor="middle" style="opacity: 1; font-family: 'Open Sans', verdana, arial, sans-serif; font-size: 17px; fill: rgb(42, 63, 95); fill-opacity: 1; white-space: pre;">n (input size)</text></g><g class="g-ytitle"><text class="ytitle" transform="rotate(-90,27.174999999999997,300)" x="27.174999999999997" y="300" text-anchor="middle" style="opacity: 1; font-family: 'Open Sans', verdana, arial, sans-serif; font-size: 17px; fill: rgb(42, 63, 95); fill-opacity: 1; white-space: pre;">Time (microseconds)</text></g></g></svg>